<?xml version="1.0" standalone="no"?>
<!DOCTYPE svg PUBLIC "-//W3C//DTD SVG 20010904//EN"
 "http://www.w3.org/TR/2001/REC-SVG-20010904/DTD/svg10.dtd">
<svg version="1.0" xmlns="http://www.w3.org/2000/svg"
 width="640.000000pt" height="640.000000pt" viewBox="0 0 640.000000 640.000000"
 preserveAspectRatio="xMidYMid meet">
<metadata>
Created by potrace 1.14, written by Peter Selinger 2001-2017
</metadata>
<g transform="translate(0.000000,640.000000) scale(0.100000,-0.100000)"
fill="#000000" stroke="none">
<path d="M1215 5744 c-65 -34 -86 -67 -100 -164 -4 -25 -9 -54 -11 -65 -2 -11
-7 -33 -9 -50 -21 -117 -25 -145 -30 -180 -2 -22 -7 -51 -10 -65 -3 -14 -7
-41 -10 -60 -3 -19 -7 -46 -10 -60 -3 -14 -7 -43 -10 -65 -3 -22 -7 -47 -10
-55 -2 -8 -7 -31 -9 -50 -7 -49 -25 -143 -30 -147 -2 -2 -14 -6 -27 -8 -69
-14 -144 -27 -177 -31 -20 -2 -59 -8 -87 -14 -27 -5 -66 -12 -85 -15 -19 -3
-46 -7 -60 -10 -14 -2 -45 -7 -70 -11 -24 -3 -47 -7 -50 -9 -4 -2 -28 -6 -56
-10 -27 -3 -56 -8 -64 -10 -8 -3 -31 -7 -50 -9 -138 -19 -170 -29 -201 -64
-63 -71 -62 -142 4 -237 22 -33 45 -61 49 -63 4 -2 8 -8 8 -12 0 -5 12 -27 28
-48 200 -286 370 -530 376 -540 8 -13 -21 -63 -99 -168 -16 -23 -36 -50 -42
-60 -24 -36 -272 -389 -280 -399 -26 -32 -82 -123 -88 -143 -14 -48 4 -111 44
-151 37 -37 82 -53 185 -66 21 -2 46 -6 55 -9 9 -3 36 -7 61 -10 25 -3 55 -8
66 -10 12 -2 38 -7 58 -10 20 -3 52 -9 72 -12 40 -6 65 -11 104 -19 14 -3 41
-7 60 -9 20 -3 47 -7 60 -10 14 -3 41 -8 60 -11 19 -2 62 -9 95 -15 33 -5 60
-10 60 -10 1 0 1 -8 2 -17 0 -10 3 -36 7 -58 7 -47 20 -128 21 -135 2 -11 17
-97 21 -125 3 -16 9 -55 14 -85 5 -30 12 -70 15 -87 11 -72 15 -93 35 -213 12
-69 23 -132 25 -140 2 -8 4 -18 4 -22 2 -13 65 -75 86 -83 55 -22 141 -5 189
37 6 5 49 36 96 68 47 32 90 63 96 68 5 5 21 15 35 22 13 7 26 16 29 20 3 3
34 26 70 51 36 24 69 47 75 52 5 4 36 26 67 48 l58 40 -54 67 c-161 200 -264
480 -275 743 -1 10 -22 31 -48 48 -88 56 -169 133 -236 223 -93 124 -145 239
-178 393 -31 147 -11 408 40 520 5 11 19 43 32 70 37 83 123 206 191 272 84
82 141 125 230 170 161 83 253 106 428 107 203 1 306 -21 467 -102 l60 -31 12
22 c32 63 118 167 210 254 71 67 193 154 278 198 l53 27 -5 47 c-3 25 -8 53
-10 61 -3 8 -7 33 -10 55 -3 22 -11 65 -16 95 -6 30 -12 66 -14 80 -2 14 -9
54 -15 90 -6 36 -13 81 -15 100 -3 19 -7 46 -10 60 -3 14 -7 36 -10 50 -3 14
-13 36 -23 50 -60 81 -151 90 -248 25 -32 -22 -63 -44 -69 -48 -5 -5 -102 -73
-215 -152 -113 -79 -244 -171 -291 -204 -47 -33 -93 -63 -102 -67 -10 -3 -38
11 -74 38 -32 24 -66 48 -75 53 -9 6 -144 100 -300 209 -323 227 -348 239
-423 200z"/>
<path d="M3510 4784 c-36 -7 -75 -15 -86 -18 -97 -21 -278 -118 -368 -198 -83
-73 -196 -208 -196 -235 0 -6 -3 -13 -7 -15 -23 -10 -85 -161 -109 -265 -8
-35 -17 -98 -20 -140 -2 -43 -8 -80 -12 -83 -4 -3 -41 -14 -82 -24 -41 -10
-79 -22 -85 -26 -5 -4 -27 -13 -47 -19 -43 -14 -189 -104 -237 -146 -145 -127
-262 -311 -308 -480 -26 -100 -38 -348 -20 -420 3 -11 10 -41 16 -68 23 -100
84 -230 150 -322 49 -68 138 -165 145 -157 3 3 6 1 6 -4 0 -16 122 -101 201
-140 73 -36 179 -77 179 -69 0 3 12 0 27 -6 14 -5 40 -12 57 -15 26 -4 294
-16 334 -15 16 1 94 1 135 1 17 0 50 1 72 1 22 0 45 0 50 -1 6 -1 15 -1 20 0
13 2 87 2 100 0 6 -1 15 -1 20 0 13 2 87 2 100 0 6 -1 15 -1 20 0 13 2 87 2
100 0 6 -1 15 -1 20 0 12 2 87 3 98 0 9 -2 85 -2 95 0 7 2 127 1 140 -1 4 -1
12 0 17 1 10 2 128 1 143 -1 4 -1 12 0 17 1 10 2 128 1 143 -1 4 -1 12 -1 17
0 14 3 258 3 270 1 6 -1 15 -1 20 0 13 2 87 2 100 0 6 -1 15 -1 20 0 13 2 87
2 100 0 6 -1 15 -1 20 0 13 2 87 2 100 0 6 -1 15 -1 20 0 13 2 87 2 100 0 6
-1 15 -1 20 0 13 2 87 2 100 0 6 -1 15 -1 20 0 13 2 87 2 100 0 6 -1 15 -1 20
0 13 2 87 2 100 0 6 -1 15 -1 20 0 22 4 95 1 105 -5 5 -3 10 -3 10 2 0 4 19 8
43 7 37 0 64 4 157 22 97 20 262 112 350 197 57 55 130 146 130 162 0 8 4 15
8 17 19 8 74 147 98 249 13 53 11 236 -3 299 -18 81 -21 95 -23 95 -1 0 -3 10
-6 22 -6 32 -80 169 -117 217 -105 135 -251 235 -420 286 -62 19 -76 27 -71
39 3 9 8 64 9 122 4 103 -8 191 -37 284 -14 48 -87 189 -99 193 -5 2 -9 8 -9
13 0 22 -165 189 -187 189 -7 0 -13 4 -13 9 0 11 -149 85 -210 105 -70 22
-117 29 -227 31 -157 4 -269 -24 -407 -100 -70 -38 -76 -40 -76 -24 0 22 -116
159 -184 217 -121 103 -255 169 -431 212 -71 18 -287 20 -365 4z"/>
<path d="M1978 4314 c-2 -1 -17 -5 -34 -8 -107 -19 -234 -91 -319 -180 -84
-89 -117 -142 -155 -256 -26 -74 -35 -239 -18 -312 5 -23 11 -51 13 -61 9 -42
87 -185 125 -229 44 -51 60 -59 60 -30 0 10 5 23 12 30 7 7 9 12 5 12 -4 0 -1
14 8 30 9 17 13 30 11 30 -3 0 19 49 49 109 85 168 194 305 337 420 104 85
153 115 271 171 48 23 85 46 82 51 -3 5 -2 17 3 26 5 10 12 34 15 55 5 36 5
36 -61 71 -37 19 -87 41 -112 48 -25 7 -52 14 -60 17 -19 5 -228 11 -232 6z"/>
<path d="M2567 1588 c-39 -11 -137 -91 -137 -113 0 -7 -3 -15 -8 -17 -6 -3
-238 -347 -307 -457 -22 -36 -28 -58 -30 -110 -1 -37 1 -73 5 -81 4 -8 13 -27
20 -42 36 -76 115 -122 210 -123 107 0 158 35 249 174 25 38 99 148 163 245
64 96 124 188 132 204 19 37 15 155 -7 198 -20 38 -73 91 -112 111 -35 19
-126 24 -178 11z"/>
<path d="M3527 1588 c-39 -11 -137 -91 -137 -113 0 -7 -3 -15 -8 -17 -6 -3
-238 -347 -307 -457 -22 -36 -28 -58 -30 -110 -1 -37 1 -73 5 -81 4 -8 13 -27
20 -42 61 -129 255 -166 366 -70 29 25 350 497 387 568 20 39 17 156 -6 200
-20 38 -73 91 -112 111 -35 19 -126 24 -178 11z"/>
<path d="M4487 1588 c-39 -11 -137 -91 -137 -113 0 -7 -3 -15 -8 -17 -6 -3
-238 -347 -307 -457 -22 -36 -28 -58 -30 -110 -1 -37 1 -73 5 -81 4 -8 13 -27
20 -42 36 -76 115 -122 210 -123 107 0 158 35 249 174 25 38 99 148 163 245
64 96 124 188 132 204 19 37 15 155 -7 198 -20 38 -73 91 -112 111 -35 19
-126 24 -178 11z"/>
<path d="M5447 1588 c-39 -11 -137 -91 -137 -113 0 -7 -3 -15 -8 -17 -4 -1
-43 -57 -86 -123 -43 -66 -83 -121 -87 -123 -5 -2 -9 -8 -9 -14 0 -6 -10 -25
-23 -42 -13 -17 -47 -69 -76 -115 -50 -78 -54 -89 -56 -150 -1 -36 1 -73 5
-81 4 -8 13 -27 20 -42 62 -133 264 -168 371 -64 19 19 109 146 199 283 91
136 168 250 173 251 4 2 7 12 7 22 0 10 4 22 10 25 15 9 5 146 -13 181 -20 38
-73 91 -112 111 -35 19 -126 24 -178 11z"/>
</g>
</svg>
